  <svg
    id="logomark"
    xmlns="http://www.w3.org/2000/svg"
    
    viewBox="0 0 48 48"
    class="w-12"
  >
    <g id="logomark-2" data-name="logomark" transform="translate(0 0)">
      <path
        id="Pfad_18"
        data-name="Pfad 18"
        d="M-837.011,1244.641c.111,5.253-3.922,10.648-8.579,15.419-4.771,4.656-10.165,8.69-15.419,8.579-5.254.111-10.648-3.922-15.419-8.579-4.656-4.771-8.69-10.166-8.579-15.419-.111-5.254,3.922-10.648,8.579-15.419,4.771-4.657,10.165-8.69,15.419-8.579,5.254-.111,10.648,3.922,15.419,8.579C-840.934,1233.993-836.9,1239.388-837.011,1244.641Z"
        transform="translate(885.009 -1220.641)"
        fill="#f24162"
      />
      <g id="Gruppe_4" data-name="Gruppe 4" transform="translate(6.927 6.927)">
        <path
          id="Pfad_19"
          data-name="Pfad 19"
          d="M-827.466,1253.942a17.024,17.024,0,0,0-12.12-5.013,17.024,17.024,0,0,0-12.121,5.013,17.16,17.16,0,0,0,0,24.241,17.025,17.025,0,0,0,12.121,5.013,17.025,17.025,0,0,0,12.12-5.013A17.161,17.161,0,0,0-827.466,1253.942Zm-.693,23.549a16.052,16.052,0,0,1-11.428,4.726,16.052,16.052,0,0,1-11.428-4.726,16.18,16.18,0,0,1,0-22.856,16.052,16.052,0,0,1,11.428-4.726,16.052,16.052,0,0,1,11.428,4.726A16.18,16.18,0,0,1-828.158,1277.491Z"
          transform="translate(856.72 -1248.929)"
          fill="#f2f2f2"
        />
        <path
          id="Pfad_20"
          data-name="Pfad 20"
          d="M-821.649,1263.221a14.591,14.591,0,0,0-10.389-4.3,14.592,14.592,0,0,0-10.389,4.3,14.709,14.709,0,0,0,0,20.778,14.592,14.592,0,0,0,10.389,4.3,14.592,14.592,0,0,0,10.389-4.3A14.709,14.709,0,0,0-821.649,1263.221Zm-.693,20.085a13.62,13.62,0,0,1-9.7,4.01,13.62,13.62,0,0,1-9.7-4.01,13.729,13.729,0,0,1,0-19.393,13.62,13.62,0,0,1,9.7-4.01,13.62,13.62,0,0,1,9.7,4.01A13.729,13.729,0,0,1-822.342,1283.307Z"
          transform="translate(849.172 -1256.476)"
          fill="#f2f2f2"
        />
        <path
          id="Pfad_21"
          data-name="Pfad 21"
          d="M-815.833,1272.5a12.257,12.257,0,0,0-17.315,0,12.257,12.257,0,0,0,0,17.315,12.2,12.2,0,0,0,8.658,3.58,12.206,12.206,0,0,0,8.658-3.58A12.258,12.258,0,0,0-815.833,1272.5Zm-.693,16.623a11.277,11.277,0,0,1-15.93,0,11.278,11.278,0,0,1,0-15.93,11.229,11.229,0,0,1,7.965-3.294,11.228,11.228,0,0,1,7.965,3.294A11.278,11.278,0,0,1-816.526,1289.124Z"
          transform="translate(841.624 -1264.025)"
          fill="#f2f2f2"
        />
        <path
          id="Pfad_22"
          data-name="Pfad 22"
          d="M-810.017,1281.78a9.728,9.728,0,0,0-6.926-2.865,9.729,9.729,0,0,0-6.926,2.865,9.807,9.807,0,0,0,0,13.852,9.729,9.729,0,0,0,6.926,2.865,9.729,9.729,0,0,0,6.926-2.865A9.807,9.807,0,0,0-810.017,1281.78Zm-.692,13.16a8.756,8.756,0,0,1-6.234,2.578,8.756,8.756,0,0,1-6.234-2.578,8.826,8.826,0,0,1,0-12.467,8.755,8.755,0,0,1,6.234-2.578,8.755,8.755,0,0,1,6.234,2.578A8.826,8.826,0,0,1-810.709,1294.939Z"
          transform="translate(834.076 -1271.572)"
          fill="#f2f2f2"
        />
        <path
          id="Pfad_23"
          data-name="Pfad 23"
          d="M-804.212,1291.049a7.3,7.3,0,0,0-5.194-2.152,7.3,7.3,0,0,0-5.195,2.152,7.3,7.3,0,0,0-2.152,5.194,7.3,7.3,0,0,0,2.152,5.194,7.3,7.3,0,0,0,5.195,2.152,7.3,7.3,0,0,0,5.194-2.152,7.3,7.3,0,0,0,2.152-5.194A7.3,7.3,0,0,0-804.212,1291.049Zm-.693,9.7a6.374,6.374,0,0,1-9,0,6.325,6.325,0,0,1-1.865-4.5,6.326,6.326,0,0,1,1.865-4.5,6.348,6.348,0,0,1,4.5-1.862,6.347,6.347,0,0,1,4.5,1.862,6.326,6.326,0,0,1,1.865,4.5A6.325,6.325,0,0,1-804.9,1300.745Z"
          transform="translate(826.539 -1279.11)"
          fill="#f2f2f2"
        />
      </g>
    </g>
    <g id="logomark-3" data-name="logomark" transform="translate(0 0)">
      <path
        id="Pfad_18-2"
        data-name="Pfad 18"
        d="M-837.011,1244.641c.111,5.253-3.922,10.648-8.579,15.419-4.771,4.656-10.165,8.69-15.419,8.579-5.254.111-10.648-3.922-15.419-8.579-4.656-4.771-8.69-10.166-8.579-15.419-.111-5.254,3.922-10.648,8.579-15.419,4.771-4.657,10.165-8.69,15.419-8.579,5.254-.111,10.648,3.922,15.419,8.579C-840.934,1233.993-836.9,1239.388-837.011,1244.641Z"
        transform="translate(885.009 -1220.641)"
        fill="#f24162"
      />
      <g
        id="Gruppe_4-2"
        data-name="Gruppe 4"
        transform="translate(6.927 6.927)"
      >
        <path
          id="Pfad_19-2"
          data-name="Pfad 19"
          d="M-827.466,1253.942a17.024,17.024,0,0,0-12.12-5.013,17.024,17.024,0,0,0-12.121,5.013,17.16,17.16,0,0,0,0,24.241,17.025,17.025,0,0,0,12.121,5.013,17.025,17.025,0,0,0,12.12-5.013A17.161,17.161,0,0,0-827.466,1253.942Zm-.693,23.549a16.052,16.052,0,0,1-11.428,4.726,16.052,16.052,0,0,1-11.428-4.726,16.18,16.18,0,0,1,0-22.856,16.052,16.052,0,0,1,11.428-4.726,16.052,16.052,0,0,1,11.428,4.726A16.18,16.18,0,0,1-828.158,1277.491Z"
          transform="translate(856.72 -1248.929)"
          fill="#f2f2f2"
        />
        <path
          id="Pfad_20-2"
          data-name="Pfad 20"
          d="M-821.649,1263.221a14.591,14.591,0,0,0-10.389-4.3,14.592,14.592,0,0,0-10.389,4.3,14.709,14.709,0,0,0,0,20.778,14.592,14.592,0,0,0,10.389,4.3,14.592,14.592,0,0,0,10.389-4.3A14.709,14.709,0,0,0-821.649,1263.221Zm-.693,20.085a13.62,13.62,0,0,1-9.7,4.01,13.62,13.62,0,0,1-9.7-4.01,13.729,13.729,0,0,1,0-19.393,13.62,13.62,0,0,1,9.7-4.01,13.62,13.62,0,0,1,9.7,4.01A13.729,13.729,0,0,1-822.342,1283.307Z"
          transform="translate(849.172 -1256.476)"
          fill="#f2f2f2"
        />
        <path
          id="Pfad_21-2"
          data-name="Pfad 21"
          d="M-815.833,1272.5a12.257,12.257,0,0,0-17.315,0,12.257,12.257,0,0,0,0,17.315,12.2,12.2,0,0,0,8.658,3.58,12.206,12.206,0,0,0,8.658-3.58A12.258,12.258,0,0,0-815.833,1272.5Zm-.693,16.623a11.277,11.277,0,0,1-15.93,0,11.278,11.278,0,0,1,0-15.93,11.229,11.229,0,0,1,7.965-3.294,11.228,11.228,0,0,1,7.965,3.294A11.278,11.278,0,0,1-816.526,1289.124Z"
          transform="translate(841.624 -1264.025)"
          fill="#f2f2f2"
        />
        <path
          id="Pfad_22-2"
          data-name="Pfad 22"
          d="M-810.017,1281.78a9.728,9.728,0,0,0-6.926-2.865,9.729,9.729,0,0,0-6.926,2.865,9.807,9.807,0,0,0,0,13.852,9.729,9.729,0,0,0,6.926,2.865,9.729,9.729,0,0,0,6.926-2.865A9.807,9.807,0,0,0-810.017,1281.78Zm-.692,13.16a8.756,8.756,0,0,1-6.234,2.578,8.756,8.756,0,0,1-6.234-2.578,8.826,8.826,0,0,1,0-12.467,8.755,8.755,0,0,1,6.234-2.578,8.755,8.755,0,0,1,6.234,2.578A8.826,8.826,0,0,1-810.709,1294.939Z"
          transform="translate(834.076 -1271.572)"
          fill="#f2f2f2"
        />
        <path
          id="Pfad_23-2"
          data-name="Pfad 23"
          d="M-804.212,1291.049a7.3,7.3,0,0,0-5.194-2.152,7.3,7.3,0,0,0-5.195,2.152,7.3,7.3,0,0,0-2.152,5.194,7.3,7.3,0,0,0,2.152,5.194,7.3,7.3,0,0,0,5.195,2.152,7.3,7.3,0,0,0,5.194-2.152,7.3,7.3,0,0,0,2.152-5.194A7.3,7.3,0,0,0-804.212,1291.049Zm-.693,9.7a6.374,6.374,0,0,1-9,0,6.325,6.325,0,0,1-1.865-4.5,6.326,6.326,0,0,1,1.865-4.5,6.348,6.348,0,0,1,4.5-1.862,6.347,6.347,0,0,1,4.5,1.862,6.326,6.326,0,0,1,1.865,4.5A6.325,6.325,0,0,1-804.9,1300.745Z"
          transform="translate(826.539 -1279.11)"
          fill="#f2f2f2"
        />
      </g>
    </g>
  </svg>